Video
Format                         : AVC
Format/Info                    : Advanced Video Codec
Format profile                 : Main@L2.1
Format settings, CABAC         : Yes
Format settings, ReFrames      : 3 frames
Format settings, GOP           : M=1, N=48
Codec ID                       : 7
Duration                       : 1h 25mn
Bit rate                       : 368 Kbps
Width                          : 640 pixels
Height                         : 270 pixels
Display aspect ratio           : 2.40:1
Frame rate mode                : Constant
Frame rate                     : 24.000 fps
Color space                    : YUV
Chroma subsampling             : 4:2:0
Bit depth                      : 8 bits
Scan type                      : Progressive
Bits/(Pixel*Frame)             : 0.089
Stream size                    : 224 MiB (78%)

Audio
Format                         : AAC
Format/Info                    : Advanced Audio Codec
Format profile                 : LC
Codec ID                       : 10
Duration                       : 1h 25mn
Bit rate                       : 96.7 Kbps
Channel(s)                     : 1 channel
Channel positions              : Front: C
Sampling rate                  : 44.1 KHz
Compression mode               : Lossy
Stream size                    : 58.9 MiB (20%)